<svg id="visual" viewBox="0 0 900 600" width="900" height="600" xmlns="http://www.w3.org/2000/svg" xmlns:xlink="http://www.w3.org/1999/xlink" version="1.1"><rect x="0" y="0" width="900" height="600" fill="#0F1640"></rect><path d="M0 444L16.7 442.5C33.3 441 66.7 438 100 440.3C133.3 442.7 166.7 450.3 200 453.2C233.3 456 266.7 454 300 446.2C333.3 438.3 366.7 424.7 400 421.2C433.3 417.7 466.7 424.3 500 434C533.3 443.7 566.7 456.3 600 456.7C633.3 457 666.7 445 700 442.7C733.3 440.3 766.7 447.7 800 453C833.3 458.3 866.7 461.7 883.3 463.3L900 465L900 601L883.3 601C866.7 601 833.3 601 800 601C766.7 601 733.3 601 700 601C666.7 601 633.3 601 600 601C566.7 601 533.3 601 500 601C466.7 601 433.3 601 400 601C366.7 601 333.3 601 300 601C266.7 601 233.3 601 200 601C166.7 601 133.3 601 100 601C66.7 601 33.3 601 16.7 601L0 601Z" fill="#7cb1ff"></path><path d="M0 457L16.7 463.7C33.3 470.3 66.7 483.7 100 486.3C133.3 489 166.7 481 200 472C233.3 463 266.7 453 300 453C333.3 453 366.7 463 400 468.8C433.3 474.7 466.7 476.3 500 476.3C533.3 476.3 566.7 474.7 600 473C633.3 471.3 666.7 469.7 700 464.3C733.3 459 766.7 450 800 447.3C833.3 444.7 866.7 448.3 883.3 450.2L900 452L900 601L883.3 601C866.7 601 833.3 601 800 601C766.7 601 733.3 601 700 601C666.7 601 633.3 601 600 601C566.7 601 533.3 601 500 601C466.7 601 433.3 601 400 601C366.7 601 333.3 601 300 601C266.7 601 233.3 601 200 601C166.7 601 133.3 601 100 601C66.7 601 33.3 601 16.7 601L0 601Z" fill="#6092eb"></path><path d="M0 479L16.7 480.7C33.3 482.3 66.7 485.7 100 490.3C133.3 495 166.7 501 200 506.2C233.3 511.3 266.7 515.7 300 510.3C333.3 505 366.7 490 400 486.3C433.3 482.7 466.7 490.3 500 492.5C533.3 494.7 566.7 491.3 600 492.3C633.3 493.3 666.7 498.7 700 503.3C733.3 508 766.7 512 800 513.7C833.3 515.3 866.7 514.7 883.3 514.3L900 514L900 601L883.3 601C866.7 601 833.3 601 800 601C766.7 601 733.3 601 700 601C666.7 601 633.3 601 600 601C566.7 601 533.3 601 500 601C466.7 601 433.3 601 400 601C366.7 601 333.3 601 300 601C266.7 601 233.3 601 200 601C166.7 601 133.3 601 100 601C66.7 601 33.3 601 16.7 601L0 601Z" fill="#4773d5"></path><path d="M0 533L16.7 533C33.3 533 66.7 533 100 533.5C133.3 534 166.7 535 200 532.8C233.3 530.7 266.7 525.3 300 521.3C333.3 517.3 366.7 514.7 400 519.3C433.3 524 466.7 536 500 537.7C533.3 539.3 566.7 530.7 600 524.8C633.3 519 666.7 516 700 514.7C733.3 513.3 766.7 513.7 800 513.7C833.3 513.7 866.7 513.3 883.3 513.2L900 513L900 601L883.3 601C866.7 601 833.3 601 800 601C766.7 601 733.3 601 700 601C666.7 601 633.3 601 600 601C566.7 601 533.3 601 500 601C466.7 601 433.3 601 400 601C366.7 601 333.3 601 300 601C266.7 601 233.3 601 200 601C166.7 601 133.3 601 100 601C66.7 601 33.3 601 16.7 601L0 601Z" fill="#3254be"></path><path d="M0 544L16.7 549.2C33.3 554.3 66.7 564.7 100 566.3C133.3 568 166.7 561 200 557.8C233.3 554.7 266.7 555.3 300 554.2C333.3 553 366.7 550 400 550.2C433.3 550.3 466.7 553.7 500 553.7C533.3 553.7 566.7 550.3 600 548.2C633.3 546 666.7 545 700 548.5C733.3 552 766.7 560 800 561.7C833.3 563.3 866.7 558.7 883.3 556.3L900 554L900 601L883.3 601C866.7 601 833.3 601 800 601C766.7 601 733.3 601 700 601C666.7 601 633.3 601 600 601C566.7 601 533.3 601 500 601C466.7 601 433.3 601 400 601C366.7 601 333.3 601 300 601C266.7 601 233.3 601 200 601C166.7 601 133.3 601 100 601C66.7 601 33.3 601 16.7 601L0 601Z" fill="#2135a6"></path></svg>